<svg xmlns="http://www.w3.org/2000/svg" aria-label="EUMERA" viewBox="0 0 1526.3 535.1"><title>EUMERA</title><path fill="#0a1f4c" d="M256.3 80.6h2.7c17.5 0 33.3 1.3 50 7q5.9 1.9 11.9 3.2a50 50 0 0 1 15 7q3.6 1.6 7.4 3a76 76 0 0 1 16.6 9l4 2c4.3 2.2 7.4 5 11 8l4.6 3.1c3.6 2.3 6.4 4.8 9.4 8l2.9 2.3q5 4.5 9 9.6l3 3c1.3 2.5 1.3 4.3 1.4 7.1v2.7a30 30 0 0 1-3.2 9.7c-2.5 5.6-4.2 11.5-6.1 17.4-1.8 5.1-3.4 9-7 13.1l-3.4 6.3q-4.4 8.5-10.6 15.7l-2.2 3-5.8 6-2 2.6c-2 2.4-2 2.4-4.5 4s-2.5 1.4-4.3 4.3c-2.8 4-6.1 5.7-10.2 8.1l-2.5 2.6c-3.2 3.1-6.6 4.5-10.5 6.4l-4.2 3a75 75 0 0 1-15.2 7.5l-11 5.1-3.1 1.6c-3 2.2-3.5 3.4-4.5 6.8l-.2 5.2v3l.2 6c.2 10-1.2 18.1-6 27.1l-2 4a57 57 0 0 1-10 13.7l-2.5 3a45 45 0 0 1-7.5 7l-2.4 2.4q-5 4.8-10.6 8.6l-3 2.2q-4.9 2.8-10.3 4.6c-2.7 1.2-2.7 1.2-6.3 3.7-5.2 3.3-11 4.6-16.8 6.2l-6.5 1.7-3.2.8-7.7 2.5c-8.4 2.5-17.4 2.5-26.1 3.1-12 1-23.3 3.4-32.1 12.2-.4 3-.4 3 0 6 19.4 14.6 55.7 11.8 78.4 8.7q6.4-1.2 12.7-2.9 4.5-1.2 9-2a91 91 0 0 0 27.9-9.8l5.9-1.6c6.6-2 12-5 17.9-8.5 3.2-1.9 3.2-1.9 7.5-4a67 67 0 0 0 9.7-6.3q3-2.2 6-4c4-2.6 7.4-5.4 11-8.6l6-4 7-6 2.6-2c2.4-2 2.4-2 4.4-4.5s2-2.5 4.3-3.8c3.2-2 5-4.7 7.2-7.7 1.8-2.4 4-4 6.5-6l1.5-2.4c1.5-2.6 1.5-2.6 3.8-4.3 3-2.6 4.9-5.5 7-9l4.7-5.8q4.4-5.4 8-11.5l2-2.3c2.4-3.2 4-6.5 5.7-10 1.3-2.7 1.3-2.7 3.7-6.3 3.3-5 5-10.8 7-16.5q1.9-4.5 4.2-8.9a64 64 0 0 0 5.3-16q1.2-4.4 3-8.6c2.7-6.2 3-12.5 3.7-19.2l.7-7.2.2-3.2c.5-2.8.5-2.8 2.5-6.8 2.3.2 2.3.2 5 1 1.5 2.5 1.5 2.5 3 6l.9 2.3 2 5.1 2 5c3 6.4 4 13 5.2 20q1.7 9 4 18.3a131 131 0 0 1 3 33.7v4.6c0 8.6-.3 16.7-2.1 25l-.6 2.8-1.8 8-.7 3-1.3 5.6-1.7 7.3c-1.7 7-3.5 13-7 19.3q-1.5 3.7-2.8 7.5a62 62 0 0 1-7.8 14.5 42 42 0 0 0-3.4 6.7 37 37 0 0 1-7 10.3l-5.2 7.7a48 48 0 0 1-5.7 6.3l-1.5 2.5a32 32 0 0 1-9 9.4c-2.5 2.1-2.5 2.1-5.3 5.5a51 51 0 0 1-9.2 8.2q-3 2.1-5.6 4.6c-3.4 2.8-3.4 2.8-7.1 5-3.3 1.8-3.3 1.8-5.7 4.3a31 31 0 0 1-10.1 6.2c-2.5 1.3-2.5 1.3-5 3.3a35 35 0 0 1-9.7 5q-6.9 2.6-13.5 5.7c-5.6 2.6-11.3 4-17.3 5.3l-4.5 1-4.5 1-5.7 1.6a146 146 0 0 1-35.5 3.8h-4.1a161 161 0 0 1-31.7-3.4c-.8 0-.8 0-4.7-.9l-17.5-3.9c-8.4-2-15.8-4.7-23.5-8.6a48 48 0 0 0-8.2-3 41 41 0 0 1-11-6l-6.8-4a63 63 0 0 1-10.3-7.6l-3.7-2c-3.4-2-5-3.8-7.3-7l-3-2c-3.2-2-4.7-4-7-7l-6.1-5.3a76 76 0 0 1-11-11.7l-3.4-3.7a46 46 0 0 1-6.2-8.9c-2.3-4.4-2.3-4.4-4.8-7.2-3.1-3.8-5-7.8-7-12.3-1.5-2.9-1.5-2.9-4.7-6.3a23 23 0 0 1-5-12.2c-.8-3.4-.8-3.4-3.2-7.6-3.7-7.3-5.1-15.3-6.8-23.2l-1.1-4.7a199 199 0 0 1-5-43.5v-2.7c0-13.3 2.6-26.4 5-39.4l.9-4c1.9-9.8 4.6-18.8 8.9-27.8l4.5-10.6c1.8-4.7 4.3-8.6 7-12.9l2.4-5c2.3-4.6 5-8 8.6-12l2.6-4.3c2.4-3.7 2.4-3.7 5.4-4.7l2-5a173 173 0 0 1 38.8-35.5c2.2-1.5 2.2-1.5 4.7-3.6q4.3-3.1 9-5.5l7.3-4.4q6.4-3.8 13.5-5.9c2.7-1 2.7-1 5.2-2.9 5.2-3.2 10.7-4.3 16.5-5.8l7-1.8 3-.7q4.2-1.2 8-2.9l5-1 2.7-.5a237 237 0 0 1 33.7-1.7"/><path fill="#0a1f4c" d="M228.9 95.9c-1 3-1 3-5 5l-7.5 1.5c-4.5.8-8.4 1.7-12.6 3.5l-3.9.8c-4 1.2-4 1.2-7.3 3.6-5.2 3.6-10.6 4.5-16.8 5.6v3l-4 4-2.2 2.2-1.8 1.8-4-2h-5l-1 7h-2v3l-3 1-1 4h5l1-3c2.4-1 2.4-1 5.3-1.6l3-.8 2.7-.6 4-1 1-3 2.5-1q1.2-.3 2.5-1c.7-2.6.7-2.6 1-5l2-1 4 2 1 3-2.5.8c-2.5 2.2-2.5 2.2-2.8 4.8q0 4.2.3 8.4h2c.4 2.7.4 2.7 0 6-2.2 2.9-2.2 2.9-6 5q-6.5.5-13 0c.3 2.4.3 2.4 1 5l3 1v2c3.7.2 6.4-.1 10-1.1 9.8-2.3 20.5.3 30.4 1.6q8.3.9 16.7 1.5l3.8.3q11.1.9 21.9.4 1.2 0 2.3.3l2 3c-1.7 1.7-4.1 1.2-6.4 1.3h-3.6l-3.8.2h-4q-6.3.4-12.6.5l-28.1.9-6.6.2-7.6.3h-4c-4.3.7-7 2.3-10.2 5-3.4 2.5-7.2 3.4-11.2 4.5a44 44 0 0 0-9 5l-3.4 2.5-3.6 2.5-3.7 2.6a39 39 0 0 0-7.2 7.5l-3.3 2.2a37 37 0 0 0-9.1 10.5c-1.6 2.3-1.6 2.3-4.3 4.7-3 3.4-4 6.7-5.3 10.9-1 2.7-1 2.7-3.5 5.9-3.4 5-4.4 10.4-5.7 16.4-.8 3.4-.8 3.4-1.8 5.4-.3 4.6-.1 6.8 2 11 4.7 2.3 11.3 1.2 16.4 1.2h4c15.9.2 15.9.2 22.6-3.2q2.4-3.2 4-6.8c1.4-3 3.5-5 6-7.2l2.4-3.1c2.7-3 5.2-4.8 8.6-7l1.9-2c7.7-6.8 24.9-6 35-5.8q5.5.3 11 .9.7 3.4 1 7a95 95 0 0 1-20.4 3.4c-7.1.4-14.1 1.3-20.5 4.6-1.7 2.6-1.7 2.6-3 5-3.2 1.3-3.2 1.3-6 2 1 3 1 3 2 4q6 .1 12-.6c4-.4 4-.4 7.7.5 4.4 1 8.4 1.5 13 1.7l4.9.2 5 .3 10 .4 4.4.2q5 .4 10 1.3h8l1 4c-11.7 3.9-26 2.3-38.1 2.6-28.3.5-28.3.5-37 5.4q-8.1 3.9-17 6.5c-4.3 1.6-5.2 2.9-8 6.5l-3.8 1.8c-5.2 2.8-6.8 5.4-10.1 10.2l-2.6 1.9c-3.5 3-4.6 6.9-6.4 11l-2.5 2.3c-3.3 3.7-3.8 7.4-4.5 12.2a32 32 0 0 1-7 16.6c-1.4 6-.6 10 1 16 15.5-3.2 15.5-3.2 19-7.3l2-5.2c2.2-5.6 7.6-10 13-12.5l8-2 2.4-1.5c8-4.7 18.2-3.7 27.3-3.5 36.9.3 36.9.3 45.4-8.1q1-.9 1.9-2c3.8-.7 3.8-.7 7-1v4c-4 3-4 3-7.1 4s-3 1-5 5c-4.3 3.7-9.4 4.2-15 5v2c-3.3 1.8-7.3 1.5-11.1 1.7-2.8.4-2.8.4-5.8 2.4-.7 3-.7 3-1 6-3.3.8-4.7 1-8 0v-2l-2 1q-5.3 0-10.4-.3c-4 .3-6.2 1.4-9.6 3.3h-3c1 3 1 3 4 6l-1 4h9l1-4c3-2 3-2 6-2v4l3.2.3c3.8.7 3.8.7 7.8 3.7 3.4.4 3.4.4 7.4.4h4.3l4.6-.1h4.5c13.3 0 13.3 0 19.2-2.3l1-3 7-1 3-2c4.9-.5 5.8-.2 10 3l-2 3q-6.1 1-12.4 1.3l-3.6.7-2 4c-6.2 4.8-13 5-20.5 5.6l-7.6.7-3.6.3a211 211 0 0 0-33.3 7.4l-3 .8a34 34 0 0 0-17 10.2l-3.2 2.3c-2.8 2.7-2.8 2.7-3.8 6.7 0 5.8.9 7.9 5 12 23.8 13 64.9 9.2 91 6.9l3.8-.3c7.4-.7 12.8-2.6 19.3-6.2 4.4-2.2 8.9-3.1 13.7-4 7-1.3 11.4-3 17.2-7.4l5.9-2.4a34 34 0 0 0 12.2-8c4-3.4 8.9-5 13.9-6.6v-2l8-5-2-2 2.4-1.8c2.6-2.2 2.6-2.2 4.6-5.2l4.9-.3c2.8-.2 2.8-.2 5-.7 1.8-3 1.8-3 3-6l7-3 3.3-3.2 2.8-2.8 3 1c-.3 3.5-.5 5.9-2 9a56 56 0 0 1-8 4.6l-2 1.4c-.5 3.2-.5 3.2 0 6-2 2-2 2-6.6 3l-4.4 2c-.6 4.9-.6 4.9-.6 7.6l-.4 2.4c-3.6 2.4-3.6 2.4-7 4v3c3.8.3 3.8.3 8 0 1.8-2.5 1.8-2.5 3-5h4v9h-2l-2 6h-3v2h-4l1 2h2c2 2 2 2 2 7l3 1v4h-4l-1 11h-2v3.8c0 4.2 0 4.2-1 8.2v6l7-2-3-1 1-4c.6 0 .6 0 3.6.7 4.4.3 4.4.3 7.9-1.2 4.3-2 7-1.5 11.5-.5 1 2 1 2 .8 4.9-2.5 4.3-5.3 4.6-10 6-4 1.5-6.6 4.3-9.8 7-3.5 1.7-6.8 2.2-10.6 2.9-7 1.3-13.3 4.4-19.7 7.2-4.7 1.7-9.5 1.8-14.4 2l-3.6.4q-31.7 1.8-63.5-.2l-4-.1c-10-.6-20-2-28.6-7.2-4.8-2.6-9.6-3.2-15-4a24 24 0 0 1-9.6-5c-4-3-4-3-8.1-3.5-5.6-1.1-9.1-4.6-13.3-8.3-3-2.4-6.1-3.6-9.6-5.1l-3-5-3.4-1.4c-4.5-2-5.8-4.6-8.6-8.6l-3-1.4c-4.2-2.2-5.6-5.6-8-9.6l-3.2-2.6c-2.8-2.4-2.8-2.4-3.8-6.1l-1-3.3-3-.8c-3-1.2-3-1.2-4-3.3l-2-5.3a20 20 0 0 0-4.5-6.5c-3.8-4-5-8-6.5-13.2-1.2-3.5-3.3-5.8-5.6-8.5-2.6-4.4-3.3-9.4-4.3-14.4a41 41 0 0 0-4.2-10c-4.8-9.8-5-21.2-6-32l-.3-4.5a314 314 0 0 1 1-53.3 68 68 0 0 1 6.3-27c2-4 2.9-7.4 4-11.7 1-4.6 2-8.1 5.2-11.7 3.2-4.2 4-7.2 5-12.3 1-3 2.4-4.5 4.9-6.5h2l.8-2.5a32 32 0 0 1 11.2-16.5l.9-2.4c1.7-4 4.9-6 8-8.6l2.2-3.1c2.2-3.4 4.6-4.7 7.9-7l3-3.5c3-3.4 5-4.5 9-6.4l1.2-2.4c2.5-3.6 5.4-4.1 9.4-5.6 2.4-1 2.4-1 4.8-3.4 3.5-3.5 7.3-4.6 11.8-6.3 3.4-1.6 5.3-3.7 7.8-6.3q7-2.8 14-4c3.9-.6 5-1.1 8.4-3.5 9.5-6.6 25.9-6.1 36.6-2.5"/><path fill="#fff" d="M257.8 72.7h2.9c6.2.1 12 .6 18.3 1.6q9.1 1.2 18.4 1.7a41 41 0 0 1 24.5 7.9l7 2.1q18.2 5.3 33.7 15.8 4.2 2.7 8.6 5c5 2.6 9.2 5.7 13.7 9.1l2.7 1.5c2.3 1.5 2.3 1.5 4 4.4 2.9 3.9 6 5 10.3 7.1 1.7 2.4 1.7 2.4 3 5l2.5 2.4c4.7 4.9 5.9 9.2 5.9 15.9a67 67 0 0 1-9.4 34.7l-1.7 4c-2.6 6.1-6.4 11.6-10 17.1-2.3 3.9-2.3 3.9-4 7.8-1.7 4-3.7 4.7-7.3 7.1a68 68 0 0 0-10.4 13.5c-2.1 3.2-4.5 4.9-7.5 7.1l-3.1 2.3-8 5.1q-7.6 4.7-14.2 10.4a79 79 0 0 1-20.8 11.6c-9.8 4.2-9.8 4.2-13 7-2.6 8.6-2.7 17.3-3 26.2-.4 7.2-1.3 11.1-6 16.8q-3.2 6.4-6 13a28 28 0 0 1-7 9l-4.3 4.2-2.1 2c-1.6 1.8-1.6 1.8-2.6 3.8l-6 3q-4 2.9-7.3 6.6c-3.6 3.1-7.2 3.9-11.7 5.4l-2.7 2.4c-4.5 3.5-9.2 4.3-14.7 5.6-3.6 1-3.6 1-7.6 3.1-10 4.7-21.8 4.1-32.5 4.5q-9.9.4-19.6 1.3l-4.8.5c-3.5.5-6.1.9-9.1 2.6l-2 5c-2.7 1.8-2.7 1.8-5 3l1 2c9.7 3 19.8 3.7 29.8 4.2l4 .3q18.1 1.2 36.2-1.5l1-1 6.7-.6c7.6-.5 14-1 20.7-5.1 3.4-1.7 6.8-2.4 10.6-3.2a33 33 0 0 0 15.2-7.3c4.9-3.2 10.5-4.5 16-6.2 4.4-1.9 5.2-3.7 7.8-7.6 3.5-1.6 3.5-1.6 7.6-2.8a38 38 0 0 0 18.4-13.2c3.2-3.4 6.2-5.9 10.2-8.3q11.7-7 18.8-18.7l3-4 1-3c2-1.3 2-1.3 4.8-2.7 5-3 7-5.7 9.2-11.3a24 24 0 0 1 8.8-10.9 36 36 0 0 0 10.9-18.4c1.6-4.6 3.5-7.8 6.3-11.7 3.9-5.7 6-10.7 7.5-17.5l1.3-5.4.6-2.6 2.6-10.6.9-3.8 2.4-9 .7-2.6 1.9-7.1a62 62 0 0 0 1.9-17.1c.2-4.9.6-6 4.2-9.3 6.4-5.3 6.4-5.3 10-7l4 2c.8 2.4.8 2.4 1.3 5.3 1.4 5.8 3.6 7.5 8.7 10.7a45 45 0 0 1 4.8 12.8q2 8.2 5.2 16.1c6.3 17.3 6.5 36.8 7 55.1v4.8c.5 31.1.5 31.1-5.2 42.8a30 30 0 0 0-1.3 9.5 77 77 0 0 1-10.5 33.9 42 42 0 0 0-5 12.2c-1.3 4.7-3.2 5.7-7 8.8q-2.5 3.7-4.6 7.6-2.8 4.5-6.4 8.4l-4 5.4c-3.5 5-7.3 8.7-12 12.6q-4.7 4.5-9 9.6a45 45 0 0 1-10 8.4l-3.5 3.5a68 68 0 0 1-9.5 7.5l-1.8 2.4c-2.6 3-5 4.2-8.5 5.8q-10.2 5-20 10.7c-11.2 6.2-11.2 6.2-17.6 7.7l-3.1.7-8.5 1.6c-4.6 1.1-5.6 1.7-8.5 5.1-4.1 1.2-8.1 1.1-12.3 1q-8.4-.1-16.7 1c-24.5 2.5-24.5 2.5-36 0a79 79 0 0 0-15.3-1.3c-11-.2-20.8-2.8-31.2-6a72 72 0 0 0-7.8-1.6 20 20 0 0 1-10.7-6.1c-4-1.5-4-1.5-8-2.7a63 63 0 0 1-25.7-16c-2.3-2.3-2.3-2.3-5.3-3.8-3.4-1.7-5.4-3.8-8-6.5q-3.4-3-7.1-5.3c-5-3.2-8.6-6.4-12.3-11-1.6-1.7-1.6-1.7-4.7-3.2-4.4-2.2-6.1-5.5-9-9.5l-3-3q-2.8-4.4-5-9.1c-2-3.9-2-3.9-6-6.9l-3-7-1-2.4a47 47 0 0 1-4-15.6c4.2 3.7 6.6 7.4 9 12.4 2.6 5.1 5.3 9.3 9 13.6l1.4 2.9c2.8 5.2 6.9 9.3 11 13.5q3.7 3.6 7.2 7.6c4.5 5.1 9 9.8 14.5 14q4.5 3.8 9 8l8 5 2.3 1.9c2.9 2.3 5.9 3.9 9.2 5.7a67 67 0 0 1 10.5 6.4l5.6 1.9q5.8 1.7 11 4.6c6.8 3.5 14 4.8 21.4 6.5l4.3 1q6.7 1.7 13.7 3l4.5.9c26 4.6 52.3 2.8 77.8-4l6.7-1.6c8-1.7 15.3-5 22.7-8.4q5-2.2 10-4.1c4.3-1.8 6.8-3.8 10.3-6.8l5-2.5a32 32 0 0 0 10-7.5l4.3-2.9q5.8-3.7 10.8-8.5l5-4.2a102 102 0 0 0 12.9-13.4l3-3 1.8-2.9c2.2-3.1 2.2-3.1 4.5-5.4 2.9-3 5-6.1 7.3-9.6 1.4-2.1 1.4-2.1 3.5-4.5 2.3-3.2 3.5-6.4 4.7-10.1 1.2-2.5 1.2-2.5 3-4.7 3-3.9 4.5-8.2 6.2-12.8l2-5.2 1-2.4c1-2.4 1-2.4 2.5-5.3q2.2-5 3.2-10.5l.9-4.2.9-4.4 1.8-8.5.8-3.9 1.9-7.1c2.6-9.4 2-19 2-28.6q.3-2.4.2-4.6a141 141 0 0 0-4.7-37.2q-2.5-9.2-4-18.5a62 62 0 0 0-6.1-17.7 46 46 0 0 1-3-8.1c-1.4-3.8-1.4-3.8-4-5.1l-2.4-.7q-1.8 10.9-2.8 21.8a73 73 0 0 1-5.8 21.5 69 69 0 0 0-3 9.8c-1.2 6-3.8 11-6.7 16.4q-2.4 5-4.3 10.3c-1.8 4.9-4 8.9-7 13.1-1.4 2.1-1.4 2.1-3.5 6.3a51 51 0 0 1-7 9.8l-3 4.4q-4 6.1-9 11.6l-2 3.1c-2 3-4.3 5.3-7 7.9l-2.4 3q-3.7 4.1-7.5 8l-2 2.6c-2 2.4-2 2.4-5 4.3-3 2.1-3 2.1-5.5 5.1a36 36 0 0 1-8.5 7l-3.5 3q-4.6 3.8-9.5 7l-3.3 2.9q-5.4 4.3-11.3 7.7c-2.4 1.4-2.4 1.4-5.8 3.9a86 86 0 0 1-12.6 7l-8.2 4.2q-6 2.9-12.5 4.5c-2.3.8-2.3.8-6 2.7-5.4 2.6-10.8 3.7-16.6 5q-7.2 1.7-14.2 3.7a151 151 0 0 1-87.5-2.6c-3-2-3-2-5-4-.6-3-.6-3 0-6 2.7-3.2 5.6-5.2 9.3-7.1l2.8-1.5a41 41 0 0 1 16-4.1l4.3-.3 4.4-.3c12-1 22.7-2.7 34.2-6.7l9.3-2.4a61 61 0 0 0 18-8q3.7-2.2 8-3.7c4.7-1.8 7.9-4.5 11.7-7.9l3-2c3.4-2.3 5.4-4.9 8-8l2.6-2.1c2.6-2.1 3.7-4.1 5.4-6.9l2.3-2.2c3-3.2 4.8-6.4 6.8-10.2l2-3.9c5-10.4 5-20.1 4.6-31.4-.1-10.1-.1-10.1 3.3-14.3a86 86 0 0 1 11.5-6.4 199 199 0 0 1 17-7.5c3.9-1.8 7-4.4 10.5-7.1 5.4-3 5.4-3 8-3l2-4c2-1.5 2-1.5 4.4-3 3.7-2.3 5.4-4.2 7.6-8l3.4-2.4c3.6-2.7 5.2-4.9 7.6-8.6l2.3-2.3c7.6-7.7 13-17 17.7-26.7l1.9-2.1c2.9-4.1 4-8.4 5.6-13.2q2.3-8 5.7-15.5c1.6-3.8 2.2-6 2-10v-2.7c-.2-2.5-.2-2.5-1.2-6.5l-4-2-5.1-5.9a60 60 0 0 0-10-8.1l-2-2.1c-2-1.9-2-1.9-6.2-4.5l-3.7-2.4v-2l-4-2c-11.7-6.1-11.7-6.1-17-9.6-4.5-2.7-9-4.4-14-6.1-3-1.3-3-1.3-5.6-3.2-5.1-3.1-10.5-4.2-16.3-5.7l-6.8-1.7-3.3-.9c-3-.8-3-.8-7.4-2.4-12.3-3.7-25.2-3.7-38.1-3.7h-7.7c-17.1 0-33 2-49.3 7.2q-5.6 1.7-11.4 3a48 48 0 0 0-15.1 7.1l-6.3 2.4c-6.6 2.4-12 5.7-17.7 9.6l-4.4 2.7q-4.5 2.9-8.6 6.3l-2.7 1.7a121 121 0 0 0-36.3 36.3l-5 5-5 8-2.5 2.8a56 56 0 0 0-6.2 10.2c-3.1 6.7-3.1 6.7-5 9.4q-2.5 5-4.3 10.6c-2.7 7.5-2.7 7.5-4.6 10.5-2 3.3-2.5 6.5-3.3 10.2l-1 4.8-1.1 5.5-1.4 6.4-1.3 6.6-.7 3.1a150 150 0 0 0-2.8 29.9l-.1 2.7c0 15.5 2.6 30.6 6 45.6l1 4.6a90 90 0 0 0 8 23.2c1.4 3.3 1.9 6.3 2.3 9.9a196 196 0 0 1-8.4-12.1c-4.1-7.4-4.5-15.7-5.3-24-.7-5.5-1.3-8.9-5.3-12.9-9.3-18.6-2.8-53.2-.7-73.2l.3-3.2a61 61 0 0 1 5.4-18.6l1-2.9 1-2.2q3.4-8 5.6-16.5a32 32 0 0 1 8.4-14.4c.9-2.3.9-2.3 1.7-5 5.4-16.2 17.7-29.5 29.3-41.7q4-4.1 7.7-8.6c3.2-3.8 7-6 11.2-8.5 3.3-2.4 5.7-5.1 8.3-8.3 4.4-4.9 8.8-7.4 14.8-9.9l2.2-1.9a44 44 0 0 1 10.5-5.6l4.3-1.8 9.3-3.8q4.8-1.9 9.2-4.2a98 98 0 0 1 43-12.2l9-.8c7-.6 7-.6 10-1.2 4-.8 8.2-.7 12.4-.7"/><path fill="#0a1f4c" d="M429.9 194.9h4l1.2 4.4q2 6.5 4.6 12.9c3.7 9.2 5.6 18.3 7.3 28l1.5 8.7.8 3.9c.5 3 .5 3 1.5 6 2.7 19.5 2.6 41.3-3.1 60q-1.4 6-2.2 12c-1 6.5-2.5 12-5.2 18q-2.4 5.5-4.3 11.2a72 72 0 0 1-8.4 16.3 71 71 0 0 0-4.6 8.6 111 111 0 0 1-18.1 25l-2.8 3.5-2.3 2.5h-2l-2 4a127 127 0 0 1-20 18l-3.1 2.9a134 134 0 0 1-24.8 15l-3.2 2.5c-4 2.8-7.7 4.2-12.4 5.8l-4.3 1.5-4.1 1.3-3.5 1.2-2.5.8c.8-2.4.8-2.4 2-5a51 51 0 0 1 17.5-4.4l2.5-.6 2-4a31 31 0 0 1 10.9-5q1.5-.3 3-1c1-3.1 1-3.1 1-6-6.5-1.1-10-.7-16 2-3.8-.3-3.8-.3-7-1l-1 3 4 1c-3 2-3 2-8 2l-1-11h1q.6-3.4 1-7h2V428c0-4.2 0-4.2 1-7.2h4l-1-4-2-1c-2-4-2-4-2-7h-2l-1 2v-4h4v-2h3l2-6h2v-9h-4c0 .4 0 .4-.7 2.4l-1.3 2.6c-3.7 1-5.3 1.2-9 0l-1-3c4-3 4-3 7-4l.7-7.6c.4-2.4.4-2.4 2.6-4.4l2.8-1 3.3-1.2 2.7-.8-.3-2.8c.3-3.2.3-3.2 2.4-5.4 2.9-1.8 2.9-1.8 6-2.5l2.9-1.3c.9-4.6.9-4.6 1-9-4 2-4 2-6.4 4.5-2.6 2.5-2.6 2.5-5.8 3.4l-2.8 1c-1.4 3.2-1.4 3.2-2 6h-9q7.2-7 15.2-13 4.8-3.6 8.8-8l2.6-2.4c2.4-2.5 2.4-2.5 4.4-5.1 2-2.4 2-2.4 4.6-3.8 3-2.1 3.8-4.3 5.4-7.6l2.3-1.8c3.2-2.6 5-5.5 7.2-9q3-4.3 6.5-8.2l7-10 2.2-3.1q2.7-4.5 4.7-9.5 1.7-3.7 3.9-7c3.5-5.6 6-11.6 8.6-17.8 1.6-3.6 1.6-3.6 3.2-6a44 44 0 0 0 3.8-11.8c1.3-5.1 2.5-9.8 4.7-14.6 2.5-6 3-12.2 3.6-18.7l.7-7 .3-3c.3-2.5.3-2.5 1.3-4.5"/><path fill="#0a1f4c" d="m352.9 350.9 3 1c-.3 3.5-.5 5.9-2 9a56 56 0 0 1-8 4.6l-2 1.4c-.5 3.2-.5 3.2 0 6-2 2-2 2-6.6 3l-4.5 2c-.5 4.9-.5 4.9-.5 7.6-.2.4-.2.4-.5 2.4-3.5 2.4-3.5 2.4-7 4v3c3.9.3 3.9.3 8 0 1.9-2.5 1.9-2.5 3-5h4v9h-2c-.2 1-.2 1-2 6h-3v2h-4l1 2h2c2 2 2 2 2 7l3 1v4h-4l-1 11h-2l.2 3.8c-.1 4.2-.1 4.2-1.1 8.2v6l7-2-3-1 1-4 3.6.7c4.4.3 4.4.3 7.9-1.2 4.3-2 7-1.5 11.5-.5 1 2 1 2 .8 4.9-2.5 4.3-5.3 4.6-10 6-4 1.5-6.6 4.3-9.8 7-3.5 1.7-6.8 2.2-10.6 2.9-7 1.3-13.4 4.4-19.8 7.2-4.6 1.7-9.4 1.8-14.3 2l-3.5.4a453 453 0 0 1-63.8-.4v-1l12-1-1-2-7.8-1.4c-18.8-3.1-18.8-3.1-25.2-9.6q-4.5-1.7-9-3l-4-2-6.2-.6-3.3-.3-2.5-.1 3-10-3-.1-3.8-.3-3.7-.2c-3.5-.4-3.5-.4-7.5-2.4l1-3h8l1-4a33 33 0 0 1 19.7-4c6.5 0 12.9-1.1 19.3-2l6-.8 9.3-1.1q6-.7 11.7-2.1v-2l-8-1v-1l2.5-.3a37 37 0 0 0 17.4-5.7c5.8-2.8 12.3-3.5 18.6-4.7a32 32 0 0 0 11.5-6.3l5.8-2.4a34 34 0 0 0 12.2-8c4-3.4 9-5 14-6.6v-2q3.8-2.6 8-5l-2-2 2.3-1.8c2.6-2.2 2.6-2.2 4.6-5.2l5-.3c2.7-.2 2.7-.2 5-.7 1.7-3 1.7-3 3-6l7-3 3.2-3.2zm-30-255c5.6 1.4 10.7 3.7 16 6l2.5 1c4.8 2 8.9 4.6 13.2 7.6 2.2 1.4 2.2 1.4 6.8 3.3 4.4 2 7 4 10.5 7.4q4.6 3.7 10 6.7l5 5q1.2 1.2 2.8 2.3c6.1 5.3 12.5 11.3 13.1 19.7-.9 5-2.4 9-4.8 13.5q-2.3 5.1-4 10.4a77 77 0 0 1-7.8 15.8q-2.2 3.6-3.9 7.4a69 69 0 0 1-8.5 12.9l-2 3.2c-2 2.9-4.2 4.6-7 6.8l-1.9 2.4c-2.3 3-5 5.2-8 7.6l-2.5 2.6c-2.5 2.4-2.5 2.4-6.1 4.5-3.5 1.9-3.5 1.9-6.5 5.9-2.1 1.3-2.1 1.3-4.7 2.4a78 78 0 0 0-12.3 7.6h-2c.6-2.8.6-2.8 2-6q6-2.6 12.5-4.2l3.5-1.8c1.3-3.6 1.3-3.6 2-7 2.4-1.1 2.4-1.1 5.2-1.6 2.7-.4 2.7-.4 4.9-1.4.8-3.1.8-3.1 1-6l-5.8 2.8-3.4 1.6c-2.8 1.6-2.8 1.6-5.8 4.6-4.5 1.4-10.7 2.2-15 0-.2-2.5-.2-2.5-.1-5.6v-5.4l-3-1v-2l2.5-.6c2.5-1.4 2.5-1.4 3.8-5l.7-3.4h3v-2l4-2 1-4 3-1v-3l-3-1v-2l-2.4-.6-2.5-1.4c-.9-3.6-.9-3.6-1-7l-3-.2-3-.8-1-4h4l1-3h2v-7l4-1v-16l-4-1-.4-12.7v-3.6c-.3-9-.3-9 2.8-12.8l2.5-2 1-3-6-2v-2l-3-1c-1.4-2.6-1-5-1-8 4.3-1.1 7.2-.6 11.5.5 4.2 1 7.1 1.6 11.5 1.6l.8 2.9 1.2 3c3 1 5 1.2 8.2 1.2l4.8-.1c-2-4-2-4-4.9-5.1l-7-1.6c-3-1.3-3-1.3-4.4-4.3-1.7-3-1.7-3-5.8-4.6l-4.9-1.2c-8.7-2-8.7-2-12-4.2z"/><path fill="#fff" d="M211.2 180.8h2.5q23 0 46.3.4h7.4l10.6.3h3.2c7.4.2 7.4.2 9.6 2.4 0 5.5-.2 5.9-3.7 9.5l-2.2 2.4-2 2-2.6 2.8-2.5 2.3-3.5 3.4c-4.6 4-9.4 6-15.2 8l-2.8 1c-12.6 4.6-25.5 4.6-38.8 4.8h-2.7l-11 .2c-19.5.2-36.8 3-51.2 17.4l-2.8 3.2-2.5 2.5q-3.7 4-6.9 8.6a22 22 0 0 1-10.6 7.9q-5.2.3-10.5.3h-2.9c-2.8.2-2.8.2-7.6-.3l-3-4a73 73 0 0 1 7-18l2.5-6.1a38 38 0 0 1 7.5-12l1.6-3.1c1.4-2.8 1.4-2.8 5.4-5.8h2l2-4c3.4-3.7 7-6.2 11-9l1.8-2a28 28 0 0 1 8.6-4.8q4.4-2 8.5-4.3c14.4-7.2 31.8-6 47.5-6"/><path fill="#fff" d="M256.3 80.6h2.7c17.5 0 33.3 1.3 50 7q5.9 1.9 11.9 3.2a50 50 0 0 1 15 7q3.6 1.6 7.4 3a76 76 0 0 1 16.6 9l4 2c4.3 2.2 7.4 5 11 8l4.6 3.1c3.6 2.3 6.4 4.8 9.4 8l2.9 2.3q5 4.5 9 9.6l3 3c1.3 2.5 1.3 4.3 1.4 7.1v2.7a30 30 0 0 1-3.2 9.7c-2.5 5.6-4.2 11.5-6.1 17.4-1.8 5.1-3.4 9-7 13.1l-3.4 6.3q-4.4 8.5-10.6 15.7l-2.2 3-5.8 6-2 2.6c-2 2.4-2 2.4-4.5 4s-2.5 1.4-4.3 4.3c-2.8 4-6.1 5.7-10.2 8.1l-2.5 2.6c-3.2 3.1-6.6 4.5-10.5 6.4l-4.2 3a75 75 0 0 1-15.2 7.5l-11 5.1-3.1 1.6c-3 2.2-3.5 3.4-4.5 6.8l-.2 5.2v3l.2 6c.2 10-1.2 18.1-6 27.1l-2 4a57 57 0 0 1-10 13.7l-2.5 3a45 45 0 0 1-7.5 7l-2.4 2.4q-5 4.8-10.6 8.6l-3 2.2q-4.9 2.8-10.3 4.6c-2.7 1.2-2.7 1.2-6.3 3.7-5.2 3.3-11 4.6-16.8 6.2l-6.5 1.7-3.2.8-7.7 2.5c-8.4 2.5-17.4 2.5-26.1 3.1-12 1-23.3 3.4-32.1 12.2-.4 3-.4 3 0 6 19.4 14.6 55.7 11.8 78.4 8.7q6.4-1.2 12.7-2.9 4.5-1.2 9-2a91 91 0 0 0 27.9-9.8l5.9-1.6c6.6-2 12-5 17.9-8.5 3.2-1.9 3.2-1.9 7.5-4a67 67 0 0 0 9.7-6.3q3-2.2 6-4c4-2.6 7.4-5.4 11-8.6l6-4 7-6 2.6-2c2.4-2 2.4-2 4.4-4.5s2-2.5 4.3-3.8c3.2-2 5-4.7 7.2-7.7 1.8-2.4 4-4 6.5-6l1.5-2.4c1.5-2.6 1.5-2.6 3.8-4.3 3-2.6 4.9-5.5 7-9l4.7-5.8q4.4-5.4 8-11.5l2-2.3c2.4-3.2 4-6.5 5.7-10 1.3-2.7 1.3-2.7 3.7-6.3 3.3-5 5-10.8 7-16.5q1.9-4.5 4.2-8.9a64 64 0 0 0 5.3-16q1.2-4.4 3-8.6c2.7-6.2 3-12.5 3.7-19.2l.7-7.2.2-3.2c.5-2.8.5-2.8 2.5-6.8 2.3.2 2.3.2 5 1 1.5 2.5 1.5 2.5 3 6l.9 2.3 2 5.1 2 5c3 6.4 4 13 5.2 20q1.7 9 4 18.3a131 131 0 0 1 3 33.7v4.6c0 8.6-.3 16.7-2.1 25l-.6 2.8-1.8 8-.7 3-1.3 5.6-1.7 7.3c-1.7 7-3.5 13-7 19.3q-1.5 3.7-2.8 7.5a62 62 0 0 1-7.8 14.5 42 42 0 0 0-3.4 6.7 37 37 0 0 1-7 10.3l-5.2 7.7a48 48 0 0 1-5.7 6.3l-1.5 2.5a32 32 0 0 1-9 9.4c-2.5 2.1-2.5 2.1-5.3 5.5a51 51 0 0 1-9.2 8.2q-3 2.1-5.6 4.6c-3.4 2.8-3.4 2.8-7.1 5-3.3 1.8-3.3 1.8-5.7 4.3a31 31 0 0 1-10.1 6.2c-2.5 1.3-2.5 1.3-5 3.3a35 35 0 0 1-9.7 5q-6.9 2.6-13.5 5.7c-5.6 2.6-11.3 4-17.3 5.3l-4.5 1-4.5 1-5.7 1.6a146 146 0 0 1-35.5 3.8h-4.1a161 161 0 0 1-31.7-3.4c-.8 0-.8 0-4.7-.9l-17.5-3.9c-8.4-2-15.8-4.7-23.5-8.6a48 48 0 0 0-8.2-3 41 41 0 0 1-11-6l-6.8-4a63 63 0 0 1-10.3-7.6l-3.7-2c-3.4-2-5-3.8-7.3-7l-3-2c-3.2-2-4.7-4-7-7l-6.1-5.3a76 76 0 0 1-11-11.7l-3.4-3.7a46 46 0 0 1-6.2-8.9c-2.3-4.4-2.3-4.4-4.8-7.2-3.1-3.8-5-7.8-7-12.3-1.5-2.9-1.5-2.9-4.7-6.3a23 23 0 0 1-5-12.2c-.8-3.4-.8-3.4-3.2-7.6-3.7-7.3-5.1-15.3-6.8-23.2l-1.1-4.7a199 199 0 0 1-5-43.5v-2.7c0-13.3 2.6-26.4 5-39.4l.9-4c1.9-9.8 4.6-18.8 8.9-27.8l4.5-10.6c1.8-4.7 4.3-8.6 7-12.9l2.4-5c2.3-4.6 5-8 8.6-12l2.6-4.3c2.4-3.7 2.4-3.7 5.4-4.7l2-5a173 173 0 0 1 38.8-35.5c2.2-1.5 2.2-1.5 4.7-3.6q4.3-3.1 9-5.5l7.3-4.4q6.4-3.8 13.5-5.9c2.7-1 2.7-1 5.2-2.9 5.2-3.2 10.7-4.3 16.5-5.8l7-1.8 3-.7q4.2-1.2 8-2.9l5-1 2.7-.5a237 237 0 0 1 33.7-1.7M212 89q-6.6 1.8-13.4 2.7c-7 1-12.7 4.2-18.8 7.2q-4.7 2.3-9.5 4.1a96 96 0 0 0-14.5 7.8l-5.4 3.2q-5 3-9.6 6.8l-3 2q-5.1 3.7-10 8l-4 3v2l-4 2a123 123 0 0 0-11 12l-2.6 2.6c-2.4 2.4-2.4 2.4-4 5-1.4 2.4-1.4 2.4-3.8 4.6-3 3.2-5 6.6-7.2 10.4-1.4 2.4-1.4 2.4-4.1 5.4a27 27 0 0 0-6.3 15h-2a93 93 0 0 0-8 20c-1 3-1 3-3 6.7a50 50 0 0 0-4.1 15.2l-.5 3.1q-1.7 12-3.2 24.2l-.4 3.3q-1.8 18.1.5 36.2 0 1.8.4 3.7c1.7 15.3 3.5 29.8 9.8 44a117 117 0 0 1 3.3 10c1.5 5.2 3.5 9.1 6.7 13.5q2.3 3.5 4 7.2 2.3 4.9 5.5 9.1c3 3.8 3 3.8 5 8 2 4 3.9 6 7 8.8l6 8 5 5 2 2.7c2 2.3 2 2.3 4.5 4 2.5 1.3 2.5 1.3 3.8 3.7 2.4 3.8 5.8 5.3 9.7 7.6q1 1.4 2.3 2.5a45 45 0 0 0 10.2 7 26 26 0 0 1 4.9 3.5c2.8 2.2 5.5 3.6 8.6 5.1a51 51 0 0 1 10 6q5.8 2 11.8 3.6A36 36 0 0 1 191 469c10.8 5.5 24.4 5.8 36.3 7.3l7.8 1c16.3 2.1 31.4 1.8 47.8-.7l4.6-.6c27-3.9 27-3.9 35.7-8.7q5-2.2 10-3.7c6.5-2 11.4-4.8 16.9-8.7q3.7-2.6 7.9-4.5a100 100 0 0 0 23.9-17.5l4-3.4q6.4-5.4 12-11.6v-2l4-2c1.9-2 1.9-2 3.8-4.6q3.4-4.5 7.2-8.7 8.8-11.3 14.8-24.4c1.2-2.3 1.2-2.3 3.6-5.9 3.2-5 5-10.6 7-16.2l3.6-9a72 72 0 0 0 4-16l1-5.8.5-2.8 2.8-12.5a117 117 0 0 0 1.8-24.4v-3a125 125 0 0 0-3.2-30.5q-1.2-5.2-2.1-10.4l-.6-3.4-1.2-6.8c-1.2-6.6-3-12-6-18q-1.8-4.5-2.8-9c-1.2-5.4-1.2-5.4-2.2-7.6h-4c-1.3 2.6-1.3 4.6-1.6 7.4a104 104 0 0 1-7 33.1q-2 5.4-3.4 11.2a93 93 0 0 1-9 21.3l-3.2 6.6q-2.1 4.4-5 8.6a37 37 0 0 0-3.7 7.8 37 37 0 0 1-8.1 12l-3.1 4.6q-3.6 5.5-8 10.4l-2.5 3.7c-2.4 3.3-2.4 3.3-6.4 6.3l-.8 2.4c-1.8 3.8-5 5.3-8.2 7.6l-4 6-6 4q-1.4 1.5-2.5 3a32 32 0 0 1-8.5 7l-3.5 3c-3.5 3-3.5 3-6.7 5.1-2.8 2-2.8 2-5.2 4.3-3 3-6 5-9.5 7.2-2.1 1.4-2.1 1.4-4.6 3.6a27 27 0 0 1-7.2 3.7 34 34 0 0 0-10.1 5.6 55 55 0 0 1-15 7.3c-3.2 1.2-3.2 1.2-7 3.2a70 70 0 0 1-14.1 4.6c-10.6 2.4-10.6 2.4-15.6 4.6-25.2 10.1-69.7 9.2-94.6-1.5-5.7-2.8-5.7-2.8-8-4.7-1-2.9-1-2.9-1-6a39 39 0 0 1 25.4-16c6.8-1.4 13.6-2 20.5-2.8q10.4-1 20.7-4.2 5.9-1.5 11.9-2.4a46 46 0 0 0 15.6-5.6l6.6-2.9c11.7-5.3 11.7-5.3 16.4-10l4-2c4.3-2.2 4.7-3 7-7l6-4.5c2.7-2 4.2-4.7 6-7.6l2.3-2.6c3-3.8 5-7.8 6.9-12.3l1-2.3c4.2-9.5 4-18.9 4.2-29 .3-10 .3-10 3.6-14.8a62 62 0 0 1 22-11.6c7.4-2.6 13.5-7 20-11.4l2.8-1.6c2.2-1.4 2.2-1.4 4-3.2 2.2-2.2 2.2-2.2 6-4.5 4-2.6 6.3-5 9.2-8.7l5-4 4-5 2.3-2.2c3.5-3.6 6-7.6 8.7-11.8l2.5-3.9q3.4-5.6 6.2-11.5l2.5-4.8c3.4-6.6 5.9-13.4 8.4-20.3 1.4-3.4 1.4-3.4 3.4-6.5 1.2-5.2 1-8.9-1-14l-5.2-5.3c-1.8-1.7-1.8-1.7-4.4-4.8s-5.1-4.7-8.4-6.9l-2-1.8q-3.4-3.4-7.5-6.2a95 95 0 0 1-8.1-6 22 22 0 0 0-7.2-3.8 37 37 0 0 1-10.8-6.6c-4.5-2.9-9.6-4.4-14.6-6.2q-4.5-1.5-8.6-3.5c-7.6-3.3-15.5-4.7-23.6-6.2q-6.3-1.6-12.6-3.7c-24.2-5.4-52.1-3-75.8 3.2"/><path fill="#fff" d="M242.8 270.6h3.2c3.3.3 5.2 1.2 7.9 3.2 1 2.2 1 2.2 1 5a48 48 0 0 1-16 21l-3.4 4a57 57 0 0 1-19.8 14.7c-2.8 1.3-2.8 1.3-5.1 3-9.5 5-21.2 3.7-31.7 4-20.6.1-37.8 2-53 17.3l-5 7c-4.2 2.1-5 2.4-9 1-2-2-2-2-2.3-5.7q.1-14.6 7.3-27.3l1.9-3.4c6.9-11.8 6.9-11.8 12-16.6l2.2-2.3c3.5-3.2 7.2-5.5 11.2-8q3.4-2.1 6.7-4.7l8.7-2.9 4.7-1.5 5.6-1.6c.5 0 .5 0 3.5-1 10.6-3 20.7-3.6 31.7-3.6q5 0 9.8-.2h4.7q6.9-.3 13.8-.9 4.6-.5 9.4-.5m188-95.7c2.5.6 2.5.6 5 2 1 2.4 1 2.4 1.4 5.3 1 4.6 1.3 5.4 5.1 8.5l3.5 2.2a45 45 0 0 1 4.8 12.8q2.1 8.3 5.3 16c6.3 17.4 6.5 36.9 7 55.2v4.8c.5 31 .5 31-5.1 42.8-1.3 3.2-1.3 6-1.4 9.5a77 77 0 0 1-10.5 33.9 46 46 0 0 0-5 12.2c-1.3 4.7-3.2 5.7-7 8.8q-2.6 3.7-4.7 7.6-2.7 4.4-6.4 8.4l-3.8 5.4a61 61 0 0 1-12.2 12.6q-4.7 4.5-8.9 9.6a43 43 0 0 1-10 8.4l-3.6 3.5a57 57 0 0 1-9.5 7.5l-1.8 2.4c-2.6 3-4.8 4.2-8.4 5.8q-10.2 5-20 10.7c-11.2 6.2-11.2 6.2-17.7 7.7l-3 .8-8.6 1.5c-4.6 1-5.6 1.7-8.5 5-4 1.3-8 1.2-12.2 1q-8.5 0-16.8 1a104 104 0 0 1-39-1v-1h2.1q21.2.7 42.3-1.1l4-.3c7.4-.7 13.7-2.4 20.6-5.3q6-2.2 12.1-3.6a63 63 0 0 0 17.3-7.1q4.3-2.5 9-4.1c4.6-1.8 7.8-4 11.6-7.4l4-2c4.3-2.1 7.3-4.8 11-8l4-2.4c3.6-2.3 6.3-4.7 9.2-7.8q6.5-6.3 13.6-12a36 36 0 0 0 7.2-8.8c5.1-6.1 5.1-6.1 8-9 3.2-3.2 5.5-7.1 8-11l2.2-3.2c1.8-2.8 1.8-2.8 3.2-5.6q2-4 4.5-7.3 4.3-6.6 6.8-13.8c1.3-3.1 1.3-3.1 3.3-6.8a92 92 0 0 0 5-14.5l1.5-5.6.8-2.7 3-9.3c2.2-7.3 3-14.6 3.7-22.2l.3-3.5c2.1-24.6 1.7-51.2-7.3-74.4q-2.4-8-4-16.2a41 41 0 0 0-4-10c-3.8-8.4-3.8-8.4-5.3-13-1.7-3-1.7-3-5.2-4.1l-3.5.2c-3.4 4.6-3.8 8-4.4 13.6a162 162 0 0 1-5.4 25.8q-1.8 6.8-3 13.5a76 76 0 0 1-6.8 18 96 96 0 0 0-4.3 12.4c-1.3 3-3 5-5 7.7l-3 6.3a66 66 0 0 1-9 14.7l-2.7 4a80 80 0 0 1-7.4 10l-3.5 5a62 62 0 0 1-8.5 10l-2.5 3q-3.6 4.1-7.5 8l-2 2.6c-2 2.4-2 2.4-6 5.4h-2l-2 4c-2.3 2-2.3 2-5 4a66 66 0 0 0-7.4 6.5c-2.9 2.8-6 4.5-9.6 6.5l-3.2 2.8a85 85 0 0 1-12.9 8.5c-2.9 1.7-2.9 1.7-5.4 3.8-3.3 2.5-6.6 3.5-10.5 4.7-3 1.2-3 1.2-6.8 3.6a67 67 0 0 1-13.6 6.2l-4.7 1.7-2.5.8-6.8 2.9c-7.9 3.2-16.5 4.3-24.9 5.8l-2.8.4a161 161 0 0 1-64.5-.2 140 140 0 0 0-11.6-2.1l-4.8-1-2-3c1-4 1-4 3.2-5.5q4.3-2 8.8-3.4c-1 4-1 4-3.6 5.8l-2.4 1.2 1 2c9.7 3 19.8 3.7 30 4.2l4 .3q18 1.2 36-1.5l1-1 6.7-.5c7.7-.6 14.1-1.1 20.8-5.2 3.4-1.7 6.8-2.4 10.5-3.2a33 33 0 0 0 15.2-7.3c5-3.2 10.5-4.5 16-6.1 4.4-2 5.2-3.8 7.8-7.7 3.5-1.5 3.5-1.5 7.6-2.8a38 38 0 0 0 18.4-13.2 40 40 0 0 1 10.2-8.2q11.8-7.3 18.8-18.8l3-4 1-3c2.1-1.3 2.1-1.3 4.8-2.7 5.2-3 7-5.7 9.2-11.3 2.1-5 4.5-7.5 8.8-11a36 36 0 0 0 11-18.3c1.5-4.6 3.5-7.8 6.2-11.7a47 47 0 0 0 7.6-17.5l1.2-5.3.6-2.7 2.6-10.6 1-3.8 2.3-9 .7-2.6 2-7.1a58 58 0 0 0 1.8-17.1c.2-5 .7-6 4.2-9.3l8-6zm-214.6-3.2h5.5l15 .2h10l17.2.3h6.7l9.4.2h2.8c4.8.1 8.3.4 12 3.5 3.5 4.1 3.6 7.7 3 13-2.3 4.5-5.5 8-9 11.7-2 2.3-2 2.3-3.4 4.9-5.6 9-20.6 15.8-30.5 18.4a276 276 0 0 1-44.5 2.4c-21 .2-21 .2-30.5 3.6l-4 1.2a47 47 0 0 0-24 16.8l-2.5 2.4a41 41 0 0 0-6.5 9.5c-4.6 4.8-11.1 5.3-17.4 5.5h-7l-3.4.1c-8.3 0-8.3 0-12.5-2.3-2.3-3-2.3-5.6-2.1-9.3 1.3-9 4.3-16.4 9.4-23.9l2.5-5.1a45 45 0 0 1 7.5-10.9l2.8-4c3.9-5.2 8.8-9.1 13.9-13.2 2.3-1.8 2.3-1.8 4-3.8 3.2-2.9 6.7-4.8 10.3-7l3.6-2.4c4.8-3.1 10-4.7 15.5-6.3l2.8-.9c14.3-4.3 28.6-4.7 43.4-4.6m-61.3 20.2-4.2 1.5a21 21 0 0 0-8.8 6.5l-3.6 2.6c-3.4 2.4-3.4 2.4-6.4 6.4v2l-4 2c-3.5 2.9-5 6-7 10l-2 2.2a34 34 0 0 0-5 10.1q-2.3 6.3-5.3 12.3c-2.6 5.2-2.6 5.2-2.7 8.4l3 4q5 .6 10.3.4h2.8c6.4 0 11-.7 15.8-5.2l1.6-2 1.8-2.1q2.2-2.8 4-5.7a60 60 0 0 1 18.7-15.4l2.8-1.8 3-1.9 2.9-1.8a54 54 0 0 1 22.9-3.9h2.7l8.3-.2c55.3-.9 55.3-.9 69.5-15l2.9-3.4 2.5-2.4 6.3-6.6 1.8-2c1.4-2 1.4-2 1.4-7-3.4-3.4-8.3-2.4-12.8-2.4l-3.4-.1-11-.1-7.5-.1-22.3-.3-6.2-.1c-54.6-.6-54.6-.6-72.8 11.1"/><path fill="#0a1f4c" d="M254.7 83.8h3.8c23.3 0 23.3 0 33.8 3.5q10.4 3.2 21 4.9a79 79 0 0 1 9.6 2.7v4l-3.1-.7a514 514 0 0 0-30.5-6c-7.2-1.2-7.2-1.2-9.4-2.3Q269 88.8 258 88.7h-4.8c-4.2.2-7.4 1-11.4 2.2l-7 1q-5.6.6-11.1 2c-3.5.9-6.1 1-9.7 1-9.7-.1-17 .7-25 6.6-3.5 2.2-7.3 2.5-11.5 3a25 25 0 0 0-8.7 3.4h-2l-2 4c-2.7 1.3-2.7 1.3-5.8 2.5a28 28 0 0 0-11.2 7.5l-5.1 2c-4.8 1.7-6.3 3.6-9 8l-6 3-6 7c-.4.4-.4.4-3 2-3.4 2.3-4.7 4.7-7 8l-3 2.6c-3.1 2.5-3.5 3.9-5 7.4l-2.3 1.7a23 23 0 0 0-6.1 9.3 25 25 0 0 1-8.5 11c-1 2.5-1 2.5-1.4 5.3a25 25 0 0 1-6.1 11.2c-3 4.9-4 10.6-5.2 16.2a51 51 0 0 1-5.3 11.3c-2.5 8.5-3 17-3.6 25.9l-.4 4.8a260 260 0 0 0 0 48.2l.7 6.3.6 7.4c.8 8.8 3.2 15.6 7 23.6a50 50 0 0 1 3.3 10.8c.8 4.2 1.6 6.8 4.3 10 2.9 3.8 3.8 5.7 5 10 1.6 5.3 3.7 8.2 7.5 12 1.9 2.4 2.4 4.4 3.2 7.4l1.4 4.6 6 2 4 8 7 6 1.6 3.2c1.4 2.8 1.4 2.8 4.3 4.3 3 1.5 3 1.5 5.5 5 3 4 5 4.7 9.6 6.5l1.4 2.5c2 3.3 4.6 3.9 8.2 5.4a22 22 0 0 1 6.3 4.7c3.8 3.6 7.4 4.5 12.5 5.7 3.7 1 5.9 3.2 8.6 5.7 4 2 8 2.6 12.4 3.4 5.7 1 9.6 2.6 14.6 5.6a85 85 0 0 0 26 4.2q2.2 0 4.4.3 31.3 1.5 62.5-.2l3.2-.1a52 52 0 0 0 18.5-5.1c2.4-1.1 2.4-1.1 4.4-1.1-.3 2.4-.3 2.4-1 5-8.7 3.7-18.3 4.4-27.6 5.7l-4.8.6-12.6 1.7c-.7 0-.7 0-4.1.6-13.2 1.5-26.1-.2-39.1-2l-9.2-1.2-6-.8-2.7-.3a82 82 0 0 1-27-8.3q-6.7-2.4-13.8-4.4c-4-1.5-6-3-9.1-5.6l-5.8-3a73 73 0 0 1-14.2-9l-3.8-2c-3.3-2-4.8-4-7.2-7l-3.6-2c-3.6-2.1-4.4-3.4-6.4-7l-2.4-1.3c-3.6-2.3-5.2-5.3-7.6-8.7l-3-2.4c-3.6-3.1-5.5-6.5-8-10.6q-1.4-1.2-2.6-2.5c-3-3.1-4.5-6.5-6.4-10.5l-4.4-5.7a73 73 0 0 1-6.1-11.3c-1.5-3-1.5-3-3.6-6-2.1-3.3-3-6.3-4-10.2a44 44 0 0 0-4.5-12.7c-7-13-6.7-31.5-8.4-46.1l-.6-5a145 145 0 0 1 .8-30.8l.4-3.5c4-34 4-34 9.9-44.7 2.3-4.5 3.8-9.2 5.4-14 1-3 1-3 3-7h2l1.3-4a44 44 0 0 1 7.7-14.3q2.7-3.7 5-7.7c2.3-4 4.8-6.8 8-10l2-3a29 29 0 0 1 7-7q2.9-3 5.4-6.1l4.7-5h2l2-4 8-6 2.6-2q4-3 8.4-6 1-.5 2-1.3 7.8-5.2 16-9.6l3.2-2q6.4-3.3 13.2-5.5 4.3-1.8 8.2-4c5.8-3 11.5-4 17.8-5.1l6.4-1.2 3-.5q4.5-1 8.8-2.3c10.2-2.8 20.7-2.5 31.2-2.5m239.3-31.9c4.9 1.8 6.8 2.7 10 7q1.2 4.2 2 8.5.7 2.3 1 4.5l1 4 1 4q3 1.2 6 2 5.7 1.8 11.2 3.9l4 1.4c4 1.8 6.2 3.3 8.8 6.7l-1 4c-6 2.9-12.3 4-18.7 5.2a16 16 0 0 0-10.5 6.7 32 32 0 0 0-2.7 10c-.8 6.3-3 9.4-7.1 14-3 2-3 2-5.5 2.2-2.5-1.1-2.5-1.1-4.1-4.2-2-5.2-2.6-10.5-3.4-16.1a18 18 0 0 0-6-9.8c-6-3.2-12-4-18.6-5.1-3.6-1-5-2-7.4-5 3.8-7.6 10-9.3 17.6-12l5.7-2 2.5-1c2.2-1 2.2-1 5.2-4q1.3-6.2 2.3-12.5c1-5.7 2-8.8 6.7-12.4"/><path fill="#fff" d="M257.8 72.7h2.9c6.2.1 12 .6 18.3 1.6q9.1 1.2 18.4 1.7a41 41 0 0 1 24.5 7.9l7 2.1q18.2 5.3 33.7 15.8 4.2 2.7 8.6 5c5 2.6 9.2 5.7 13.7 9.1l2.7 1.5c2.3 1.5 2.3 1.5 4 4.4 2.9 3.9 6 5 10.3 7.1 1.7 2.4 1.7 2.4 3 5l2.5 2.4c4.7 4.9 5.9 9.2 5.9 15.9a67 67 0 0 1-9.4 34.7l-1.7 4c-2.6 6.1-6.4 11.6-10 17.1-2.3 3.9-2.3 3.9-4 7.8-1.7 4-3.7 4.7-7.3 7.1a68 68 0 0 0-10.4 13.5c-2.1 3.2-4.5 4.9-7.5 7.1l-3.1 2.3-8 5.1q-7.6 4.7-14.2 10.4a79 79 0 0 1-20.8 11.6c-9.8 4.2-9.8 4.2-13 7-2.6 8.6-2.7 17.3-3 26.2-.4 7.2-1.3 11.1-6 16.8q-3.2 6.4-6 13a28 28 0 0 1-7 9l-4.3 4.2-2.1 2c-1.6 1.8-1.6 1.8-2.6 3.8l-6 3q-4 2.9-7.3 6.6c-3.6 3.1-7.2 3.9-11.7 5.4l-2.7 2.4c-4.5 3.5-9.2 4.3-14.7 5.6-3.6 1-3.6 1-7.6 3.1-6.1 2.9-12.4 3.2-19 3.9v-2l4.3-1.3A139 139 0 0 0 221 377q7.1-2.6 14.4-4.8a27 27 0 0 0 8.5-5.3q2.2-1.2 4.7-2.3c5.4-2.6 9.7-5.9 14.3-9.7l3.2-2.6c2.8-2.4 2.8-2.4 5.5-5.2 2.3-2.2 2.3-2.2 4.3-2.2l.6-2.2c1.4-2.8 1.4-2.8 4-4.8 4.2-3.8 6.2-7.9 8.7-13 1.7-3 1.7-3 4.7-7 3.8-12 4-24 3.6-36.5.4-3.5.4-3.5 2-5.9 3-2.1 6.3-3.2 9.6-4.5a45 45 0 0 0 7.8-4.2 37 37 0 0 1 9.7-4.4c4.9-1.7 7.4-4 11.3-7.5l8-5 7-6 4-2 5-6 2.9-2.4c2.5-2.1 4.3-4 6.3-6.4l2.8-3.2h2l.7-2.2a38 38 0 0 1 5-8.1 117 117 0 0 0 9.3-14.7l2.5-3.8q3.7-6.7 6.2-13.9 1.8-4.6 4-9.1c4-8.8 5.8-17.4 3.3-26.9-2.3-3.7-4.7-6-8-8.7q-3.7-3-7-6.6l-2.5-2c-2.5-2-2.5-2-5-4.5a53 53 0 0 0-8.5-6.5l-3.3-3c-3.7-2.9-7-4.8-11.3-6.7-2.4-1.3-2.4-1.3-4.8-3.3-3.2-2.4-6.3-3.6-10.1-5s-7.2-2.8-10.6-5.1-6.2-3-10.1-3.9c-6-1.4-11.4-3.3-17.1-5.9a59 59 0 0 0-17.7-4l-4.6-.4-4.7-.3-4.7-.4a251 251 0 0 0-47.4.7 85 85 0 0 0-32 7.2c-6.2 2.5-13 3.7-19.6 5.1 3-3.5 5.8-5 10-6.5q6-2.1 11.8-4.7a55 55 0 0 1 18.7-4.6l4.2-.4 4.4-.4 8.6-.7 3.9-.4c14.7-1.5 14.7-1.5 18.3-1.5"/><path fill="#fff" d="M242.8 270.6h3.2c3.3.3 5.2 1.2 7.9 3.2 1 2.2 1 2.2 1 5a48 48 0 0 1-16 21l-3.4 4a57 57 0 0 1-19.8 14.7c-2.8 1.3-2.8 1.3-5.1 3-9.5 5-21.2 3.7-31.7 4-20.6.1-37.8 2-53 17.3l-5 7c-4.2 2.1-5 2.4-9 1-2-2-2-2-2.3-5.7q.1-14.6 7.3-27.3l1.9-3.4c6.9-11.8 6.9-11.8 12-16.6l2.2-2.3c3.5-3.2 7.2-5.5 11.2-8q3.4-2.1 6.7-4.7l8.7-2.9 4.7-1.5 5.6-1.6c.5 0 .5 0 3.5-1 10.6-3 20.7-3.6 31.7-3.6q5 0 9.8-.2h4.7q6.9-.3 13.8-.9 4.6-.5 9.4-.5m-12 9.2a157 157 0 0 1-21.7 1.3c-12 .3-24 .7-36 2.1l-3 .4c-6.2.8-10.7 2.6-16 6.1-3.2 2.1-3.2 2.1-7.8 4.1a49 49 0 0 0-22.4 24l-2.2 4.6-2.1 4.6-1.2 2.4a18 18 0 0 0-2.3 9.5l.8 2 4-1 1.6-2.8c2.9-4 5.6-5 10-7 2.4-1.3 2.4-1.3 4.5-3.4 9.9-9.9 34.6-8.2 47.9-8.5 15.3-.3 32-4 43-15.4l2.7-2c2.3-2 2.3-2 4.8-5s2.5-3 5.3-4.7c2.6-2.7 2.5-3.7 2.5-7.4-.3-4.9-.3-4.9-1.3-5.9a19 19 0 0 0-11 2m333-130.9q3 5.2 5.4 10.7c2.8 6 5.8 7.5 11.6 10.3 2 3.3 2 3.3 3.6 7l1.5 3.7c.9 3.3.9 3.3-.1 7.3-2.2 2.8-3.5 3.9-7 4.8l-3.1.3c-5.6.7-5.6.7-9 2.9l-.8 4.9c-.6 3.4-1 4.9-3.2 7.8-4.3 1.9-7.3 1.3-12 .3-5-2.5-6.5-5-9-10-2.1-1.6-2.1-1.6-5-3-4-2.5-7.5-4.6-11-8-.3-3.2-.3-3.2-.2-7v-3.6c.3-3.3.6-5.5 2.3-8.4 2.6-1.4 2.6-1.4 5.8-2.7 5.8-2.7 7.8-5.3 10.7-11 2.1-3.5 4.8-4.7 8.4-6.3l2.6-1.4c3.5-1 5.1-.2 8.4 1.4"/><path fill="#0a1f4c" d="M320.9 255.9v3l-2.2.6a48 48 0 0 0-25.8 15.4 23 23 0 0 0-1.2 8.2l-.1 3.2q-.3 3.1-.3 6.4a64 64 0 0 1-17.4 44.2l-2.6 2.7-2.5 2.3-2.4 2.5-2.5 2.5-2.3 2.6c-3.4 2.9-6.9 4.5-10.8 6.4l-1.7 1.9c-3 2.8-5.8 3.7-9.6 5-5 2-9.1 4-13.6 7-7.3 2.9-15.4 4-23.1 5.3q-4.9 1-9.7 2.4a87 87 0 0 1-16 2.3c-15.3 1.4-27.5 4.3-38.6 15.5-1.6 2.6-1.6 2.6-1.8 5.7 1.7 4 3.8 4.8 7.8 6.7q1.8.7 3.6 1.7c26.7 10.6 69 9.4 95.8-.5l4.9-1.5 2.4-.7 6.2-1.7a86 86 0 0 0 20.9-7.7c2.5-1.4 2.5-1.4 6.6-2.8 4.5-1.8 7.7-4.2 11.4-7q3.6-2.2 7.7-3.7c5-1.8 8-4.3 11.9-8 2.7-1.3 5-1 8-1-8 6-8 6-10 6v2q-6 3.7-12.1 6.5c-3 1.6-3 1.6-6 4.5-4.3 3.4-8 5-13 6.8-3 1.3-3 1.3-5.2 3.3-4 2.9-8.4 3.5-13 4.5a63 63 0 0 0-18.8 6.5c-23.6 11.8-63 5.3-88.2 2.2l-3.9-.5a42 42 0 0 1-17.9-5.7v-2l-3-1c-1.9-3.1-2-5.3-2-9 1.3-5.3 3.6-6.7 8-10l3.6-3.2c6.7-5.5 14.2-7.5 22.4-9.8l2.8-.8a202 202 0 0 1 35.5-5.7l2.6-.2 7-.6a25 25 0 0 0 11.1-4.7l2-4q6.1-1 12.2-1.1c3.8-1 3.8-1 6-3.8l1.8-3.1c3.3-2.1 7.1-4 11-4l2-4 3.6-2.1c5.8-3.3 8.9-8.5 12.5-14l2.6-3.7a79 79 0 0 0 8.7-37.8c.3-6.7 1.4-11.8 5.8-17 6.4-5.6 12.5-10 21-12l3.1-.8c2.7-.6 2.7-.6 4.7-.6m-123.6-88 27.8-.2h4.3q24.1 0 48.3.6h3.8l3.3.1 2.8.1c2.4.3 2.4.3 6.4 2.3-5.7 1.3-11.3 1.4-17 1.6l-3.9.1q-15.2.4-30.2.3h-24.5c-17.1-.2-32.8.4-49.3 5.7q-1.5.7-3.1 1a52 52 0 0 0-17 8.9c-2 1.5-2 1.5-5.4 3-3.4 2-5.1 4.5-7.6 7.5l-6.1 4.5q-5.9 4.8-9.7 11.5l-1.2 2h-2l-2 4-1.9 3.6c-12 23.9-12 23.9-11.1 36.4 4.1 3.2 4.8 3.4 9.7 3.4H122c6.9 0 12.6-.5 18.9-3.5 2.3-2.6 2.3-2.6 4.1-5.7a41 41 0 0 1 10.9-12.2l2.5-2.5a46 46 0 0 1 21.5-11.5l4.4-1.5c9.4-2.6 19.5-2 29.1-2 46.1-.4 46.1-.4 65-14.8 3.5-2.7 3.5-2.7 5.5-2.7l.6-2.1a27 27 0 0 1 6.2-8c4.9-5.2 7.4-10 9.2-17h1c.1 9.6.1 9.6-1 14q-3 2.7-6 5l-3 5a57 57 0 0 1-22 17q-1.2 1-2.4 1.7c-3.7 2-7.3 2.6-11.4 3.4q-7 1.3-13.8 3.7c-11 3.3-23 2.4-34.4 2.3a201 201 0 0 0-31 2l-3.3.5c-2.7.4-2.7.4-6.7 1.5l-2 4-2.8 1.8a30 30 0 0 0-7.8 8.3c-1.4 1.9-1.4 1.9-4.1 4.6-2.3 2.3-2.3 2.3-3.7 5.5-2.4 4-5.2 4.5-9.6 5.8-6.3 1.6-12.6 1.3-19 1.4H105c-3.7-.4-4.9-1.4-7.1-4.4-2.3-4.4-1.1-8.8.3-13.3l1.7-4.7.7-4.3a40 40 0 0 1 6.6-13 28 28 0 0 0 3.2-7.5c1.7-5 3.5-6 7.5-9.2l3.3-5a40 40 0 0 1 11.7-11l2.5-2.5q4.9-4.6 10.5-8.5l2-1.5a57 57 0 0 1 17.5-8.1c3.5-1.4 3.5-1.4 6.7-4a18 18 0 0 1 11.2-3.2l4.9-.1z"/><path fill="#fff" d="M498.9 45.9c4.5 3.7 6.6 7.8 9 13l3-1c-1 4-1 4-2 7l3 3 2 5c5.4 5.4 16.2 6.3 23.4 7.9 3.6 1 3.6 1 7.6 4 1.3 5.5-.3 7.4-3 12-3.1 3.2-6.1 4.6-10 6.5-17 8.8-17 8.8-20 15.6l-2 9c-2 2-2 2-3.8 3.5-2.8 3-4.2 6.5-5.9 10.3-1.3 2.2-1.3 2.2-3.7 3.6-2.7.6-2.7.6-6.4-1.6a22 22 0 0 1-8.3-12.8l-.2-6.6c-.3-5.8-.3-5.8-2.4-8.4a43 43 0 0 0-6.3-4l-3.5-2.2c-3.5-1.8-3.5-1.8-7.7-3.3-5.7-2.3-7.8-5.3-10.8-10.5l-2-2q-.8-5.5 0-11c5.4-6.1 13.2-5.6 20.9-6.4 3.3-.5 6-1 9-2.6 3.3-4.5 3-8 3-13.4.1-4.8 1.5-7.5 4-11.6 4.4-3 7.9-4.3 13-3m-5 6c-4 2.8-5 4.9-6.2 9.8q-.6 2.6-.9 5.3c-1.4 9.5-1.4 9.5-4.8 12.9l-7.2 3-4.1 1.6-8.4 3a18 18 0 0 0-8.3 6.4c1 4 1 4 3.6 5.7 4.8 1.9 9.7 2.5 14.7 3.4 6 1.5 9 4 12.7 8.9q1.2 4.8 2 9.5c1 4.8 1.8 9 4 13.5 2.2 1 2.2 1 5 1 4.9-3.3 8.4-7 9.6-12.8l.3-3c.9-6 2.3-9.5 6-14.2 6-3 12-4 18.6-5.2 3.4-.8 5.6-1.8 8.5-3.8-1.1-4.3-1.7-5.3-5-8-2.5-1.3-2.5-1.3-5.4-2.4l-3-1.2-3.2-1.2-3.2-1.2c-8-3-8-3-10.2-3l-.8-3.5-1-4.6-1-4.5c-2.8-10.3-2.8-10.3-8.2-14.4z"/><path fill="#0a1f4c" d="M255.9 268.9a12 12 0 0 1 3.3 8.3c-.8 7.6-5.1 12.9-9.7 18.6-1.7 2-1.7 2-3.3 5.5-1.7 3.3-3 3.4-6.3 4.6q-2.2 2.5-4 5a74 74 0 0 1-14 9q-1.2 1.5-2 3c-15 6.5-31.2 6.2-47 5.8-8.9-.1-18 0-25.7 4.8-2.3 1.4-2.3 1.4-6 2-6.1 2-10.1 5.6-14.3 10.4-1.3 2.5-1.3 2.5-2.2 4.9-1.8 4-1.8 4-5 6l-3.9 1-2.9.9-8 2.2c-2.5-6.2-3.8-10.4-2-17l2.3-3.1c3.4-5.1 4.1-10.1 5-16 1-5.6 2.4-8.2 6.6-12 1.4-2.4 1.4-2.4 2.5-5a21 21 0 0 1 7.5-9q1.5-1.8 2.8-4c3.2-4.2 6.6-5.7 11.3-8l2.2-3c3.4-3.5 5.6-4.2 10.4-5.4a67 67 0 0 0 17.2-7.3c10.5-4 23.5-2.5 34.6-2.7 20-.4 20-.4 29.8-1.3 7-.5 14.2-1.1 20.8 1.8m-33.3 2.7q-6.7.4-13.4.4c-26.5.5-26.5.5-39.4 4.9l-5.3 1.6-5.7 1.8-2.6.8c-6.2 2-10.4 4.8-15.4 8.8l-4.2 2.4a30 30 0 0 0-8.8 9.6l-2.5 2.3a38 38 0 0 0-6.3 10.3c-1.2 2.4-1.2 2.4-3.3 5.3a51 51 0 0 0-5.9 29c4 3 4 3 6.4 3 4.1-1.5 6.4-4.4 9.1-7.8a52 52 0 0 1 43.1-18.3l5-.1 7.6-.1c26.3-.3 26.3-.3 36.8-8.6l4.8-2.2c6.3-3 10.5-7.8 15.2-12.8l5-5c11.2-12.7 11.2-12.7 12-20-1.2-2.8-1.2-2.8-3-5-8.9-3-20-.8-29.2-.3"/><path fill="#fff" d="M214 176.7h5.2l11.4.1 13.4.1 18.5.2 7.3.1 10.3.1h3c7 .1 7 .1 10.4 2.4 2 3.3 2 5.4 1.4 9.2-2 2.3-2 2.3-5 5l-4 5a54 54 0 0 1-20.4 16.8c-18.2 8.9-39.3 7.5-59.2 7.7l-8.6.1-2.5.1a54 54 0 0 0-27.4 7.4l-2.6 1.4c-5.4 3-9.5 6.4-13.7 10.9-1.6 1.6-1.6 1.6-3.6 1.6l-2 4-3 4.6-1.5 2.3c-2.8 3.8-4.3 5-9 6.3-8.4 1.4-17.2 1-25.5-.2-3-3-3-3-3.4-7.2.7-9.2 5.2-16.8 9.4-24.8l1.4-3a83 83 0 0 1 17.6-22l2.3-2.4a73 73 0 0 1 20.7-14.6l3.4-2.5c15-9.6 38.6-8.8 55.7-8.7m-59.1 15.2-4.2 1.5a21 21 0 0 0-8.8 6.5l-3.7 2.6c-3.3 2.4-3.3 2.4-6.3 6.4v2l-4 2c-3.5 2.9-5 6-7 10l-2 2.2a34 34 0 0 0-5 10.1q-2.3 6.3-5.3 12.3c-2.6 5.2-2.6 5.2-2.7 8.4l3 4q5 .6 10.3.4h2.8c6.4 0 11-.7 15.8-5.2l1.6-2 1.8-2.1q2.2-2.8 4-5.7a58 58 0 0 1 18.7-15.4l2.8-1.8 3-1.9 2.9-1.8a54 54 0 0 1 22.9-3.9h2.6l8.4-.2c55.3-.9 55.3-.9 69.4-15l3-3.4 2.5-2.4 6.3-6.6 1.8-2c1.4-2 1.4-2 1.4-7-3.4-3.4-8.3-2.4-12.8-2.4l-3.4-.1-11-.1-7.5-.1-22.3-.3-6.2-.1c-54.6-.6-54.6-.6-72.8 11.1m95 84c0 5 0 5-3 9l-1.2 3.3c-2 4.2-4.3 6-7.8 9-2 1.7-2 1.7-4.3 4.6a66 66 0 0 1-38.7 20l-7.2.3c-40.2.8-40.2.8-50.8 8.8l-5.8 3.4a20 20 0 0 0-7.4 7c-1.8 2.6-1.8 2.6-5.5 3.5h-3.3c-1.7-1.6-1.3-4-1.4-6.2 0-7.1 2.2-12.2 5.4-18.5l1.4-3c2.9-5.8 6-10.1 10.8-14.5 1.8-1.7 1.8-1.7 4-4.8a39 39 0 0 1 11-7.5c2.8-1.4 2.8-1.4 6.5-4 6.4-3.6 13-5 20.3-6.4l3.9-1c11.7-2.2 23.3-2.5 35.2-2.6 7.3-.1 14.2-.5 21.3-2 5.9-1 11-1.1 16.6 1.6m-19 4q-10.7 1.3-21.8 1.3a334 334 0 0 0-39 2.4 35 35 0 0 0-16 6.2c-3.2 2-3.2 2-7.8 4-10.1 5-17.8 14-22.4 24l-2.2 4.6-2.1 4.7-1.1 2.4c-1.6 3.3-2.7 5.7-2.3 9.5l.7 1.9 4-1 1.6-2.8c2.9-4 5.7-5 10-7 2.4-1.2 2.4-1.2 4.5-3.3 10-10 34.7-8.3 47.9-8.5 15.3-.4 32-4.1 43-15.4l2.7-2.1c2.3-2 2.3-2 4.8-5s2.5-3 5.3-4.7c2.7-2.7 2.5-3.7 2.6-7.4-.4-4.8-.4-4.8-1.4-5.8-4.6-.3-6.8-.1-11 2m272.3-62.1c6.2 2.5 10.7 4.5 14.6 10.1l2.7 2.5c3.1 3.3 3.3 5.8 3.6 10.2-.3 5.1-.9 8.6-3.3 13.3-3.4 2.2-7 3-11 4l-3.2 1c-4.8 1-8.2 1.6-12.8-.3-6.7-4.5-6.7-4.5-8-9.7q1.7-6.7 4-13l1.2-3.6c5-14.3 5-14.3 12.2-14.5m-9.3-165.9c4.9 1.8 6.8 2.7 10 7q1.2 4.2 2 8.5.7 2.3 1 4.5l1 4 1 4q3 1.2 6 2 5.7 1.8 11.2 3.9l4 1.4c4 1.8 6.2 3.3 8.8 6.7l-1 4c-6 2.9-12.3 4-18.7 5.2a16 16 0 0 0-10.5 6.7 32 32 0 0 0-2.7 10c-.8 6.3-3 9.4-7.1 14-3 2-3 2-5.5 2.2-2.5-1.1-2.5-1.1-4.1-4.2-2-5.2-2.6-10.5-3.4-16.1a18 18 0 0 0-6-9.8c-6-3.2-12-4-18.6-5.1-3.6-1-5-2-7.4-5 3.8-7.6 10-9.3 17.6-12l5.7-2 2.5-1c2.2-1 2.2-1 5.2-4q1.3-6.2 2.3-12.5c1-5.7 2-8.8 6.7-12.4m-1 8c-3.7 4.6-4.1 10-5.1 15.7a11 11 0 0 1-5 7.3c-2.3 1.3-2.3 1.3-5 2.5l-3 1.3-8.5 3.4c-4.4 1.8-4.4 1.8-6.4 3.8v3a156 156 0 0 0 19.2 5.4c2.8.6 2.8.6 5.8 1.6 2.9 5.6 3.7 12.2 5 18.3 1 3.7 1 3.7 3 5.7 2.4 0 2.4 0 5-1 3.8-6 6-12.1 8.3-18.7 1.9-3.8 2.8-4.7 6.7-6.3q4.3-1.2 8.7-2.1c8-1.8 8-1.8 10.3-3-.1-2.2-.1-2.2-1-5-3.1-1.5-3.1-1.5-7-3l-4.1-1.5-6.7-2.4c-4-1.7-6-3.5-7.7-7.4q-1.3-4-2.2-8a22 22 0 0 0-6.3-9.6z"/><path fill="#0a1f4c" d="M552.9 154.9c3.8 3.5 6 7.2 8.4 11.7 2.6 3.9 6.2 5.7 10.4 7.5l4.1 1.8c-1 4-1 4-4.8 6.8-4.1 2.2-4.1 2.2-6.1 2.2l-2 4-2 2.4c-2 2.6-2 2.6-3.5 5.8l-1.5 2.8-4 1-1-2.4c-3-7.6-5.3-12.2-12.2-16.7-2.8-2-2.8-2-3.8-6 2.9-1.8 5.2-3 8.6-3.8 4.9-3 5.2-6.7 6.6-12.2.8-3 .8-3 2.8-5m-60-94.9c2.3-.1 2.3-.1 5 1 4 4.3 5.2 7.9 6.3 13.4 1.3 4.7 2.2 6.3 6.2 9q6 3 12.5 5.6 4.5 1.8 9 4v4c-9.1 2.8-9.1 2.8-13.2 3.7l-3.3.6-2.9.6c-3.8 1.6-4.8 3.6-6.7 7l-3.6 10.8a19 19 0 0 1-6.4 8.3l-4-1q-2.9-6.4-4-13.2c-1.5-7.3-1.5-7.3-3-9.8-3.4-1.3-3.4-1.3-7.6-2.1q-8.8-1.8-17.4-5c1-4 1-4 3.2-5.5q4-1.9 8-3.3c13.6-4.8 13.6-4.8 16-9.3q1.7-6.4 3-12.8c.8-3 .8-3 2.8-6m0 7a73 73 0 0 0-3.5 14.5c-.5 2.5-.5 2.5-1.5 5.5l-6.2 1.4c-5 1-9.9 2.9-14.8 4.6v4q7.5 1.6 15 2.6c4 .4 4 .4 6 1.4q1.5 6.6 2.7 13.2l1.3 3.8c2.6 1 2.6 1 5 1a38 38 0 0 0 7-19l21-3v-4l-3.8-1.1-5-1.5-2.4-.7a18 18 0 0 1-9.3-5.6c-1.5-3.1-1.5-3.1-2.9-7.7a18 18 0 0 0-6.5-9.4z"/><path fill="#fff" d="m549.9 149.9 2 1-2 2q-1.6 5.7-2.8 11.5c-1.2 3.5-1.2 3.5-5.2 6.5q-4.6 1.6-9.4 2.8l-2.6 1.2-1 4c2.9 2.9 5.4 4.5 9 6.5 8.4 4.7 8.4 4.7 10 9.8l1.9 7.6 1 3 3 1a24 24 0 0 0 7-9.3 31 31 0 0 1 17.6-16c2.5-1.6 2.5-1.6 3.4-4.3v-2.3a25 25 0 0 1 5 9c-1 4.3-1.5 5.4-5 8-2.8.8-2.8.8-6 1-5.6.8-5.6.8-9 3l-.8 4.9c-.6 3.4-1 4.9-3.2 7.8-4.3 1.9-7.3 1.3-12 .3-5-2.5-6.5-5-9-10-2.1-1.6-2.1-1.6-5-3-4-2.5-7.5-4.6-11-8-.3-3.2-.3-3.2-.2-7v-3.6c.3-3.3.6-5.5 2.3-8.4 2.6-1.4 2.6-1.4 5.8-2.7 5.7-2.7 8.1-5.3 10.8-11 1.3-2.3 1.3-2.3 5.3-5.3M503.2 227c3.2 1 5.3 2.7 8 4.8l2.5 2.2c3 2.6 3.1 3.4 3.3 7.3a13 13 0 0 1-4.6 10 65 65 0 0 0-5.8 5l-2.8 1.6a31 31 0 0 1-12-11c-1.4-4.7-1.6-6.7.6-11.1 7.6-9 7.6-9 10.8-8.8"/><path fill="#0a1f4c" d="M710.5 200.2h61.7c4.7.4 7.2 2.3 10.6 5.4 2.4 4 2.4 7.3 1.7 11.9-1.3 4-2.1 5.5-5.9 7.6-5 2-9.9 1.7-15.1 1.6h-3.2l-20-.2h-9.1l-2.5-.1c-2.2 0-2.2 0-5.2 1-4.2 6.3-2 16-1.5 23 .5 2 .5 2 3.5 4 7.3 1.3 14.9 1.1 22.3 1h3.9l7.8-.1h3.6l3.3-.1c4.6.4 7.9 2 11.1 5.3q2 5.8 1 12c-2.4 4-4.5 5.6-9 7q-5 .4-10 .3h-6l-9.2.1-9 .1h-5.5l-2.3.1c-2.5.5-3.4 1.4-5 3.4-.8 3-.8 6-1 9l-.1 2.6c-.2 5.3 0 8.8 3.1 13.4 3.2.8 3.2.8 7 .9h11.3l18.8-.2h7l2.2-.1c5 0 7.8 1.2 11.7 4.4a17 17 0 0 1 3 13 17 17 0 0 1-9 9q-4.1.3-8.2.2H758l-10.8-.2h-2.8q-8.2 0-16.6.3l-4 .2-7.2.4c-6.4.3-12.4.5-18-3-4.7-5.7-4.6-12.3-4.6-19.4v-56.9l-.1-36.3v-3.2c0-6.7 1-10.2 5.6-15.1 3.4-2.6 6.9-2.3 11-2.3m119.8 1.5c6.8 5.4 6.8 5.4 8.2 9.8v21.4l-.3 34.2v5c-.4 24-.4 24 6.8 32.2a34 34 0 0 0 25.5 8.2c3-.3 5.3-1 8-2l2.7-.9c4.9-2 7.7-3.9 10.1-8.6l1.5-4.1.8-2.3a71 71 0 0 0 2.6-23.3v-7.7l-.3-35.2V221c-.1-12.5-.1-12.5 3.5-17 4-3.1 5.6-3.6 10.5-3.6h2.9c3 .2 4.4.5 6.7 2.2a19 19 0 0 1 4.5 14.2v59c0 26 0 26-7 35.8l-1.6 2.5a59 59 0 0 1-34 23q-7.8.8-15.6.7h-2.4a60 60 0 0 1-40-15.9 52 52 0 0 1-9.9-15.3l-1-2c-2.5-5.5-2.3-12-2.5-17.9l-.1-3a1050 1050 0 0 1-.7-49.2v-21a18 18 0 0 1 6.3-12c5-1.6 10-1.8 14.8.3m144.2.8c5.5 2.7 8 6.6 11.4 11.5q2 3 4.3 5.6 3.3 4.2 6 8.8 2.7 4.2 5.8 8 3.3 4.5 6.1 9l3 4.2c1.4 1.9 1.4 1.9 2.9 5 2.4 4.5 2.4 4.5 5.5 5.9 4-.6 6.3-1.3 9.2-4.1l5.5-8.7a308 308 0 0 1 15-21.6q2.1-2.7 3.8-5.7c2.1-3.5 4.6-6 7.5-9l1.3-3c3-5.1 8.3-7.1 14-9 4.4 0 7 1.6 10.4 4.6 6 6.2 5.5 13.5 5.3 21.8v3.1l-.2 3.4-.2 11a1507 1507 0 0 0-.5 46v3.6l.2 16.8v6l.2 2.8a17 17 0 0 1-4.5 13c-3.7 3-7.7 5.2-12.5 4.8-3.6-1-6-2.5-9-4.9-4-7.8-2.6-18.2-2.5-26.7v-5.9l.1-14.4v-8.2l.1-7.6V262c-.2-2.6-.2-2.6-2.2-5.6-3 .9-4.6 1.4-6.4 4.2l-1 2.5a31 31 0 0 1-5.1 8.4c-2 2.4-3 4-4.3 6.7-2 4.1-4.6 7.4-7.5 10.9a25 25 0 0 0-3.4 7 9 9 0 0 1-4.8 5.8c-3 1.2-5.3 2.2-8.5 2.5a15 15 0 0 1-8-8.2q-3-5.4-7-10.1-3.2-4.5-5.7-9.6c-1.3-2.1-1.3-2.1-3.3-4.6-2.5-3.2-4-6.7-5.6-10.4-1.4-2.1-1.4-2.1-3.4-3-2-.1-2-.1-4 .9l-1.2 5.7-.5 3.2q-.3 4.9.2 9.8a315 315 0 0 1 1 30.3l.1 10.3c0 5.9-1.6 10.2-5.6 14.7a21 21 0 0 1-11.5 3.1 21 21 0 0 1-11.5-10 16 16 0 0 1-1.2-7v-44.2l-.1-36.6v-21.4c0-9 0-9 3.3-13 6.9-5.2 11.4-5 19-2m160-2.2h24l23-.2h4.8c17-.1 17-.1 24.2 6.2q2.2 5 1 10.3c-2 3.8-4 7-8 9a102 102 0 0 1-17.5 1h-22.2l-2.5-.1q-6.5-.1-12.8 1c-1.4 4.2-1.2 8.2-1.2 12.5v7.4c.3 2.6.7 4 2.2 6.2 5 2.4 9.8 2.2 15.1 2h5.3l8.3-.1 8.1-.1 2.5-.1c5.3 0 9 .7 13.7 3.3q3.6 7.7 1 16c-2.2 2.9-4.5 4-8 5q-4.9.4-9.7.3h-2.9l-12 .2-8.7.1h-5.3l-2.3.1c-2.4.3-4 1-6 2.3-1.5 4.1-1.3 8-1.4 12.4v2.6c-.1 6.3-.1 6.3 2 9.5 5.2 3.3 11.3 2.6 17.2 2.5l24-.3h2.8c6.1 0 11.1.7 16 4.7 4.4 5.6 4.4 5.6 4.3 9.6a17 17 0 0 1-9 11.1c-3.2 1.4-6.1 1.4-9.6 1.4h-24.7l-23.6.1H1131c-4.3-.8-5.7-2.2-8.4-5.6-1.8-3-2.2-5.3-2.2-8.9V312l-.1-11.3v-43.1l-.1-18.1v-21.8c0-6.3.6-10.1 4.4-15.2 3.7-2.5 5.6-2.3 10-2.3m122.3-.1h14.7c36 .4 36 .4 50 8.4 2.2 3 2.2 3 4 6l3.5 2.2c5.8 4 8.2 10.7 9.8 17.3 1.4 7.7.8 14.2-1 21.7l-.4 2.1a18 18 0 0 1-6.9 10.7l-3.3 4a19 19 0 0 1-8 6l-3.7 2c-1.5 4.2-1.2 6.4.2 10.6a16 16 0 0 0 4.2 5.7 43 43 0 0 1 6.6 9.2c4 6.9 4 6.9 7.4 9.4 3.5 2.8 4 4.7 4.6 9 0 3.5 0 6.8-1 10-3.7 2.7-7.6 2.6-12 2a31 31 0 0 1-18.9-13.6l-3.5-5.7q-2.8-4.4-6.1-8.7-2.3-3-4.5-6.4c-7.8-11.8-7.8-11.8-11.3-14-3.8-.7-6.8-.9-10.7-.5-2.2 1.5-2.2 1.5-4 4q-.5 4-.4 8V312l-.1 7.3v2.2c0 5.2-1.2 8-4.5 12-4.4 3.2-9.8 3-15 2-4.3-2.3-7-5.4-9-10-.2-2.2-.2-2.2-.2-4.7v-9.5l-.1-11v-42.4l-.1-18v-21.3c0-5.9.4-9.5 4.4-14 5.1-3.7 9-4.6 15.3-4.4m8.7 29.4c-1.4 5.8-1 11.7-.7 17.6l.1 2.8c.5 8.9.5 8.9 2.6 12.6 3 2 3.7 2.2 7.1 2.3h2.4c12.2 0 20.6-.5 29.6-9.3l2-2 2.5-2.5a14 14 0 0 0 1.4-11.5c-3-6-6.4-10.8-13-13-5.5-1.7-11.3-1.3-17-1.3l-3.6-.1h-6.6c-3.5.5-4.6 1.6-6.8 4.4m158-29c5.3 3 10.6 6.8 13 12.7l1 4.3 3.7 10.5q2.3 5.7 5.2 11 2.4 5.6 4.1 11.6 1.5 4 3.5 7.7 3.2 6.2 5 12.9c1.8 5.2 3.7 9.6 6.5 14.3q2.2 5.1 4 10.6 3.4 9.5 8 18.4c2.8 5.3 4.2 10 3 16-2.4 3.6-4 4.7-8.2 6-6.4 0-11.6-.5-16.5-5-4.5-4.9-6.8-11-9-17.1-1.8-4.8-3.8-6.6-8.3-9q-4.5-.7-9-.4h-24.2c-6 .1-11.2 1-15.6 5.3-2 3.8-2.9 7.9-4 12a21 21 0 0 1-5.2 8.2h-2v2a22 22 0 0 1-16.5 3.6 9 9 0 0 1-5.5-3.6 20 20 0 0 1-.2-14l3.2-6c2.8-4.9 4.5-9.6 6-15 1-4 2-7.4 4.4-10.8 3.2-4.6 4.7-9.7 6.4-14.9q2-6 4.8-11.4c2.5-4.7 4-9.5 5.6-14.5 1.4-4.4 3.2-8.1 5.7-12.1q2-4.2 3.1-8.8c4-13.8 11.7-27.7 28-24.5m-11 46a35 35 0 0 0-5 12.5 39 39 0 0 1-5 12.5c0 3 0 3 1 6 5.7 4.6 11 4.6 18 4 4.3-.5 7.8-1 11.2-3.8 1.2-3.2.8-5-.2-8.2l-1.9-2.7c-2.4-3.8-3.2-7-4.1-11.4-2-9.3-2-9.3-5-13-4.7 0-5.6.9-9 4"/></svg>